# xmcd
#
# Track frame offsets:
#	150
#	16677
#	32392
#	54222
#	70685
#	89940
#	102402
#	121297
#	141502
#	156080
#	170212
#	185962
#
# Disc length: 2639 seconds
#
# Revision: 1
# Processed by: cddbd v1.4PL0 Copyright (c) Steve Scherf et al.
# Submitted via: audiograbber 1.81.03
#
DISCID=a70a4d0c
DTITLE=Gary Primich - Botheration
DYEAR=1999
DGENRE=
TTITLE0=Hardwood Floor
TTITLE1=Save It Up
TTITLE2=Queen Of Complication
TTITLE3=It's Your Baby
TTITLE4=She's A Good'un
TTITLE5=Mr. Itch
TTITLE6=Goodbye Little Girl
TTITLE7=Dollar, Dollar
TTITLE8=Fast Money
TTITLE9=Rootin' And Tootin'
TTITLE10=Daybreak
TTITLE11=Feel Like Going Home
EXTD=
EXTT0=
EXTT1=
EXTT2=
EXTT3=
EXTT4=
EXTT5=
EXTT6=
EXTT7=
EXTT8=
EXTT9=
EXTT10=
EXTT11=
PLAYORDER=
